<svg id="visual" viewBox="0 0 900 450" width="900" height="450" xmlns="http://www.w3.org/2000/svg" xmlns:xlink="http://www.w3.org/1999/xlink" version="1.1"><rect width="900" height="450" fill="#ffa500"></rect><g><g transform="translate(11 116)"><path d="M84 -53.1C97.4 -25.2 89 10.6 71.3 40.4C53.7 70.2 26.9 93.8 -1.4 94.6C-29.6 95.4 -59.2 73.3 -75.6 44.3C-91.9 15.2 -95.1 -20.8 -80.3 -49.4C-65.5 -78 -32.8 -99.3 1.2 -100C35.3 -100.7 70.5 -80.9 84 -53.1Z" fill="none" stroke="#ff0000" stroke-width="20"></path></g><g transform="translate(597 172)"><path d="M77.5 -49.3C90.1 -22.8 83 10.5 66.8 33.4C50.6 56.3 25.3 68.9 -3.9 71.1C-33.1 73.4 -66.2 65.4 -79.9 43.9C-93.6 22.5 -87.8 -12.5 -71.2 -41.2C-54.7 -70 -27.3 -92.6 2.5 -94C32.4 -95.5 64.8 -75.8 77.5 -49.3Z" fill="none" stroke="#ff0000" stroke-width="20"></path></g><g transform="translate(263 306)"><path d="M51 -30.9C60 -13.9 56.9 8.6 46.4 25.4C35.9 42.1 18 53.2 -1.4 54C-20.8 54.8 -41.5 45.4 -49.9 29.9C-58.2 14.3 -54.1 -7.3 -43.7 -25.1C-33.4 -43 -16.7 -57.1 2.2 -58.3C21 -59.6 42 -48 51 -30.9Z" fill="none" stroke="#ff0000" stroke-width="20"></path></g><g transform="translate(711 447)"><path d="M69.2 -36.9C83.3 -15.6 83.9 16.6 70.1 41.1C56.3 65.5 28.2 82.3 3.7 80.2C-20.8 78 -41.6 57 -54.8 32.9C-68 8.8 -73.6 -18.4 -63.1 -37.6C-52.7 -56.8 -26.4 -67.9 0.6 -68.2C27.6 -68.6 55.2 -58.2 69.2 -36.9Z" stroke="#ff0000" fill="none" stroke-width="20"></path></g><g transform="translate(252 24)"><path d="M60.2 -36.9C73.6 -11.7 76.8 17.3 65.1 38.7C53.4 60.2 26.7 74.1 1.3 73.4C-24.1 72.6 -48.1 57.1 -60.4 35.4C-72.7 13.6 -73.1 -14.4 -61.1 -38.9C-49 -63.5 -24.5 -84.4 -0.5 -84.1C23.4 -83.8 46.9 -62.2 60.2 -36.9Z" stroke="#ff0000" fill="none" stroke-width="20"></path></g><g transform="translate(872 89)"><path d="M59.3 -33.9C73.6 -9.5 79.6 20 68.4 43.5C57.1 66.9 28.6 84.4 -2 85.6C-32.7 86.8 -65.3 71.7 -80.5 45.9C-95.7 20.2 -93.5 -16.2 -77.1 -41.9C-60.8 -67.5 -30.4 -82.3 -3.9 -80C22.5 -77.7 45 -58.4 59.3 -33.9Z" stroke="#ff0000" fill="none" stroke-width="20"></path></g></g></svg>