<svg id="visual" viewBox="0 0 960 540" width="960" height="540" xmlns="http://www.w3.org/2000/svg" xmlns:xlink="http://www.w3.org/1999/xlink" version="1.1"><rect x="0" y="0" width="960" height="540" fill="#ff0000"></rect><defs><linearGradient id="grad1_0" x1="43.8%" y1="0%" x2="100%" y2="100%"><stop offset="14.444444444444446%" stop-color="#ffa500" stop-opacity="1"></stop><stop offset="85.55555555555554%" stop-color="#ffa500" stop-opacity="1"></stop></linearGradient></defs><defs><linearGradient id="grad1_1" x1="43.8%" y1="0%" x2="100%" y2="100%"><stop offset="14.444444444444446%" stop-color="#ffa500" stop-opacity="1"></stop><stop offset="85.55555555555554%" stop-color="#ff9100" stop-opacity="1"></stop></linearGradient></defs><defs><linearGradient id="grad1_2" x1="43.8%" y1="0%" x2="100%" y2="100%"><stop offset="14.444444444444446%" stop-color="#ff7b00" stop-opacity="1"></stop><stop offset="85.55555555555554%" stop-color="#ff9100" stop-opacity="1"></stop></linearGradient></defs><defs><linearGradient id="grad1_3" x1="43.8%" y1="0%" x2="100%" y2="100%"><stop offset="14.444444444444446%" stop-color="#ff7b00" stop-opacity="1"></stop><stop offset="85.55555555555554%" stop-color="#ff6200" stop-opacity="1"></stop></linearGradient></defs><defs><linearGradient id="grad1_4" x1="43.8%" y1="0%" x2="100%" y2="100%"><stop offset="14.444444444444446%" stop-color="#ff4300" stop-opacity="1"></stop><stop offset="85.55555555555554%" stop-color="#ff6200" stop-opacity="1"></stop></linearGradient></defs><defs><linearGradient id="grad1_5" x1="43.8%" y1="0%" x2="100%" y2="100%"><stop offset="14.444444444444446%" stop-color="#ff4300" stop-opacity="1"></stop><stop offset="85.55555555555554%" stop-color="#ff0000" stop-opacity="1"></stop></linearGradient></defs><defs><linearGradient id="grad2_0" x1="0%" y1="0%" x2="56.3%" y2="100%"><stop offset="14.444444444444446%" stop-color="#ffa500" stop-opacity="1"></stop><stop offset="85.55555555555554%" stop-color="#ffa500" stop-opacity="1"></stop></linearGradient></defs><defs><linearGradient id="grad2_1" x1="0%" y1="0%" x2="56.3%" y2="100%"><stop offset="14.444444444444446%" stop-color="#ff9100" stop-opacity="1"></stop><stop offset="85.55555555555554%" stop-color="#ffa500" stop-opacity="1"></stop></linearGradient></defs><defs><linearGradient id="grad2_2" x1="0%" y1="0%" x2="56.3%" y2="100%"><stop offset="14.444444444444446%" stop-color="#ff9100" stop-opacity="1"></stop><stop offset="85.55555555555554%" stop-color="#ff7b00" stop-opacity="1"></stop></linearGradient></defs><defs><linearGradient id="grad2_3" x1="0%" y1="0%" x2="56.3%" y2="100%"><stop offset="14.444444444444446%" stop-color="#ff6200" stop-opacity="1"></stop><stop offset="85.55555555555554%" stop-color="#ff7b00" stop-opacity="1"></stop></linearGradient></defs><defs><linearGradient id="grad2_4" x1="0%" y1="0%" x2="56.3%" y2="100%"><stop offset="14.444444444444446%" stop-color="#ff6200" stop-opacity="1"></stop><stop offset="85.55555555555554%" stop-color="#ff4300" stop-opacity="1"></stop></linearGradient></defs><defs><linearGradient id="grad2_5" x1="0%" y1="0%" x2="56.3%" y2="100%"><stop offset="14.444444444444446%" stop-color="#ff0000" stop-opacity="1"></stop><stop offset="85.55555555555554%" stop-color="#ff4300" stop-opacity="1"></stop></linearGradient></defs><g transform="translate(960, 0)"><path d="M0 486C-60.3 461.1 -120.6 436.2 -167.2 403.7C-213.9 371.3 -246.8 331.2 -297 297C-347.2 262.8 -414.6 234.5 -449 186C-483.4 137.5 -484.7 68.7 -486 0L0 0Z" fill="#ff2e00"></path><path d="M0 405C-50.3 384.3 -100.5 363.5 -139.4 336.4C-178.2 309.4 -205.7 276 -247.5 247.5C-289.3 219 -345.5 195.4 -374.2 155C-402.8 114.6 -403.9 57.3 -405 0L0 0Z" fill="#ff5400"></path><path d="M0 324C-40.2 307.4 -80.4 290.8 -111.5 269.2C-142.6 247.5 -164.5 220.8 -198 198C-231.5 175.2 -276.4 156.3 -299.3 124C-322.3 91.6 -323.1 45.8 -324 0L0 0Z" fill="#ff6f00"></path><path d="M0 243C-30.2 230.6 -60.3 218.1 -83.6 201.9C-106.9 185.6 -123.4 165.6 -148.5 148.5C-173.6 131.4 -207.3 117.2 -224.5 93C-241.7 68.7 -242.3 34.4 -243 0L0 0Z" fill="#ff8600"></path><path d="M0 162C-20.1 153.7 -40.2 145.4 -55.7 134.6C-71.3 123.8 -82.3 110.4 -99 99C-115.7 87.6 -138.2 78.2 -149.7 62C-161.1 45.8 -161.6 22.9 -162 0L0 0Z" fill="#ff9b00"></path><path d="M0 81C-10.1 76.9 -20.1 72.7 -27.9 67.3C-35.6 61.9 -41.1 55.2 -49.5 49.5C-57.9 43.8 -69.1 39.1 -74.8 31C-80.6 22.9 -80.8 11.5 -81 0L0 0Z" fill="#ffa500"></path></g><g transform="translate(0, 540)"><path d="M0 -486C52.4 -454.3 104.8 -422.7 167.6 -404.7C230.4 -386.6 303.7 -382.3 343.7 -343.7C383.6 -305 390.2 -232.1 408.4 -169.1C426.5 -106.2 456.3 -53.1 486 0L0 0Z" fill="#ff2e00"></path><path d="M0 -405C43.7 -378.6 87.3 -352.2 139.7 -337.2C192 -322.2 253.1 -318.6 286.4 -286.4C319.7 -254.2 325.2 -193.4 340.3 -141C355.4 -88.5 380.2 -44.2 405 0L0 0Z" fill="#ff5400"></path><path d="M0 -324C34.9 -302.9 69.9 -281.8 111.7 -269.8C153.6 -257.8 202.5 -254.9 229.1 -229.1C255.7 -203.4 260.1 -154.8 272.2 -112.8C284.3 -70.8 304.2 -35.4 324 0L0 0Z" fill="#ff6f00"></path><path d="M0 -243C26.2 -227.2 52.4 -211.3 83.8 -202.3C115.2 -193.3 151.9 -191.1 171.8 -171.8C191.8 -152.5 195.1 -116.1 204.2 -84.6C213.3 -53.1 228.1 -26.5 243 0L0 0Z" fill="#ff8600"></path><path d="M0 -162C17.5 -151.4 34.9 -140.9 55.9 -134.9C76.8 -128.9 101.2 -127.4 114.6 -114.6C127.9 -101.7 130.1 -77.4 136.1 -56.4C142.2 -35.4 152.1 -17.7 162 0L0 0Z" fill="#ff9b00"></path><path d="M0 -81C8.7 -75.7 17.5 -70.4 27.9 -67.4C38.4 -64.4 50.6 -63.7 57.3 -57.3C63.9 -50.8 65 -38.7 68.1 -28.2C71.1 -17.7 76 -8.8 81 0L0 0Z" fill="#ffa500"></path></g></svg>