<svg id="visual" viewBox="0 0 960 540" width="960" height="540" xmlns="http://www.w3.org/2000/svg" xmlns:xlink="http://www.w3.org/1999/xlink" version="1.1"><rect x="0" y="0" width="960" height="540" fill="#ff0000"></rect><path d="M0 244L17.8 239.3C35.7 234.7 71.3 225.3 106.8 220.7C142.3 216 177.7 216 213.2 215.8C248.7 215.7 284.3 215.3 320 216.8C355.7 218.3 391.3 221.7 426.8 226.7C462.3 231.7 497.7 238.3 533.2 240.7C568.7 243 604.3 241 640 235.2C675.7 229.3 711.3 219.7 746.8 214.7C782.3 209.7 817.7 209.3 853.2 213.2C888.7 217 924.3 225 942.2 229L960 233L960 541L942.2 541C924.3 541 888.7 541 853.2 541C817.7 541 782.3 541 746.8 541C711.3 541 675.7 541 640 541C604.3 541 568.7 541 533.2 541C497.7 541 462.3 541 426.8 541C391.3 541 355.7 541 320 541C284.3 541 248.7 541 213.2 541C177.7 541 142.3 541 106.8 541C71.3 541 35.7 541 17.8 541L0 541Z" fill="#ffa500"></path><path d="M0 257L17.8 262.5C35.7 268 71.3 279 106.8 281.7C142.3 284.3 177.7 278.7 213.2 274.8C248.7 271 284.3 269 320 268.3C355.7 267.7 391.3 268.3 426.8 266.3C462.3 264.3 497.7 259.7 533.2 259.2C568.7 258.7 604.3 262.3 640 267.3C675.7 272.3 711.3 278.7 746.8 279C782.3 279.3 817.7 273.7 853.2 270.8C888.7 268 924.3 268 942.2 268L960 268L960 541L942.2 541C924.3 541 888.7 541 853.2 541C817.7 541 782.3 541 746.8 541C711.3 541 675.7 541 640 541C604.3 541 568.7 541 533.2 541C497.7 541 462.3 541 426.8 541C391.3 541 355.7 541 320 541C284.3 541 248.7 541 213.2 541C177.7 541 142.3 541 106.8 541C71.3 541 35.7 541 17.8 541L0 541Z" fill="#fdad3a"></path><path d="M0 305L17.8 308.2C35.7 311.3 71.3 317.7 106.8 321.3C142.3 325 177.7 326 213.2 322.3C248.7 318.7 284.3 310.3 320 308.2C355.7 306 391.3 310 426.8 309.3C462.3 308.7 497.7 303.3 533.2 303.3C568.7 303.3 604.3 308.7 640 311.3C675.7 314 711.3 314 746.8 314.2C782.3 314.3 817.7 314.7 853.2 313.7C888.7 312.7 924.3 310.3 942.2 309.2L960 308L960 541L942.2 541C924.3 541 888.7 541 853.2 541C817.7 541 782.3 541 746.8 541C711.3 541 675.7 541 640 541C604.3 541 568.7 541 533.2 541C497.7 541 462.3 541 426.8 541C391.3 541 355.7 541 320 541C284.3 541 248.7 541 213.2 541C177.7 541 142.3 541 106.8 541C71.3 541 35.7 541 17.8 541L0 541Z" fill="#f9b65b"></path><path d="M0 357L17.8 358.5C35.7 360 71.3 363 106.8 364.8C142.3 366.7 177.7 367.3 213.2 366.5C248.7 365.7 284.3 363.3 320 362C355.7 360.7 391.3 360.3 426.8 361C462.3 361.7 497.7 363.3 533.2 365C568.7 366.7 604.3 368.3 640 368.3C675.7 368.3 711.3 366.7 746.8 361.8C782.3 357 817.7 349 853.2 348C888.7 347 924.3 353 942.2 356L960 359L960 541L942.2 541C924.3 541 888.7 541 853.2 541C817.7 541 782.3 541 746.8 541C711.3 541 675.7 541 640 541C604.3 541 568.7 541 533.2 541C497.7 541 462.3 541 426.8 541C391.3 541 355.7 541 320 541C284.3 541 248.7 541 213.2 541C177.7 541 142.3 541 106.8 541C71.3 541 35.7 541 17.8 541L0 541Z" fill="#f5be78"></path><path d="M0 402L17.8 399.2C35.7 396.3 71.3 390.7 106.8 390C142.3 389.3 177.7 393.7 213.2 396.8C248.7 400 284.3 402 320 402.3C355.7 402.7 391.3 401.3 426.8 398C462.3 394.7 497.7 389.3 533.2 390.2C568.7 391 604.3 398 640 401.8C675.7 405.7 711.3 406.3 746.8 405.2C782.3 404 817.7 401 853.2 400.2C888.7 399.3 924.3 400.7 942.2 401.3L960 402L960 541L942.2 541C924.3 541 888.7 541 853.2 541C817.7 541 782.3 541 746.8 541C711.3 541 675.7 541 640 541C604.3 541 568.7 541 533.2 541C497.7 541 462.3 541 426.8 541C391.3 541 355.7 541 320 541C284.3 541 248.7 541 213.2 541C177.7 541 142.3 541 106.8 541C71.3 541 35.7 541 17.8 541L0 541Z" fill="#efc694"></path><path d="M0 437L17.8 438.8C35.7 440.7 71.3 444.3 106.8 443.2C142.3 442 177.7 436 213.2 435.8C248.7 435.7 284.3 441.3 320 441.3C355.7 441.3 391.3 435.7 426.8 434.8C462.3 434 497.7 438 533.2 441.8C568.7 445.7 604.3 449.3 640 451.2C675.7 453 711.3 453 746.8 450C782.3 447 817.7 441 853.2 440.7C888.7 440.3 924.3 445.7 942.2 448.3L960 451L960 541L942.2 541C924.3 541 888.7 541 853.2 541C817.7 541 782.3 541 746.8 541C711.3 541 675.7 541 640 541C604.3 541 568.7 541 533.2 541C497.7 541 462.3 541 426.8 541C391.3 541 355.7 541 320 541C284.3 541 248.7 541 213.2 541C177.7 541 142.3 541 106.8 541C71.3 541 35.7 541 17.8 541L0 541Z" fill="#e8ceb0"></path><path d="M0 482L17.8 482.5C35.7 483 71.3 484 106.8 483.5C142.3 483 177.7 481 213.2 481C248.7 481 284.3 483 320 483.8C355.7 484.7 391.3 484.3 426.8 484.7C462.3 485 497.7 486 533.2 485C568.7 484 604.3 481 640 482.3C675.7 483.7 711.3 489.3 746.8 490C782.3 490.7 817.7 486.3 853.2 485.3C888.7 484.3 924.3 486.7 942.2 487.8L960 489L960 541L942.2 541C924.3 541 888.7 541 853.2 541C817.7 541 782.3 541 746.8 541C711.3 541 675.7 541 640 541C604.3 541 568.7 541 533.2 541C497.7 541 462.3 541 426.8 541C391.3 541 355.7 541 320 541C284.3 541 248.7 541 213.2 541C177.7 541 142.3 541 106.8 541C71.3 541 35.7 541 17.8 541L0 541Z" fill="#dfd6cc"></path></svg>